<svg width="103" height="59" viewBox="0 0 103 59" fill="none" xmlns="http://www.w3.org/2000/svg">
<path d="M60.065 0C76.565 4.96057e-05 79.5624 13 79.5624 13C79.5624 13 97.0146 13.0001 100.558 21.5005C104.101 30.0009 104.565 34.9991 92.065 39.4996C79.565 44 51.4677 41.5 51.4677 41.5C51.4677 41.5 32.5573 41.5 31.5578 27.5005C30.8438 17.5005 43.5578 18.5005 43.5578 18.5005C43.5578 18.5005 50.3371 -2.92459e-05 60.065 0Z" fill="url(#paint0_linear_1132_45)"/>
<path d="M45.5362 7.49951C62.0362 7.49956 65.0336 20.4995 65.0336 20.4995C65.0336 20.4995 82.4858 20.4996 86.0288 29C89.5718 37.5004 90.0362 42.4986 77.5362 46.9991C65.0362 51.4995 36.9389 48.9995 36.9389 48.9995C36.9389 48.9995 18.0285 48.9995 17.029 35C16.315 25 29.029 26 29.029 26C29.029 26 35.8083 7.49948 45.5362 7.49951Z" fill="url(#paint1_linear_1132_45)"/>
<line x1="21.75" y1="39.25" x2="73.25" y2="39.25" stroke="#A09C9C" stroke-width="3.5" stroke-linecap="round"/>
<line x1="1.75" y1="48.25" x2="53.25" y2="48.25" stroke="#A09C9C" stroke-width="3.5" stroke-linecap="round"/>
<line x1="17.75" y1="57.25" x2="69.25" y2="57.25" stroke="#A09C9C" stroke-width="3.5" stroke-linecap="round"/>
<defs>
<linearGradient id="paint0_linear_1132_45" x1="89.5292" y1="-12" x2="98.0292" y2="13" gradientUnits="userSpaceOnUse">
<stop stop-color="#D5CECE"/>
<stop offset="1" stop-color="#9F9999"/>
</linearGradient>
<linearGradient id="paint1_linear_1132_45" x1="75.0004" y1="-4.50047" x2="83.5004" y2="20.4995" gradientUnits="userSpaceOnUse">
<stop stop-color="white"/>
<stop offset="1" stop-color="#C6C6C6"/>
</linearGradient>
</defs>
</svg>
