<svg width="86" height="66" viewBox="0 0 86 66" fill="none" xmlns="http://www.w3.org/2000/svg">
<path d="M43.065 0C59.565 4.96057e-05 62.5624 13 62.5624 13C62.5624 13 80.0146 13.0001 83.5576 21.5005C87.1006 30.0009 87.565 34.9991 75.065 39.4996C62.565 44 34.4677 41.5 34.4677 41.5C34.4677 41.5 15.5573 41.5 14.5578 27.5005C13.8438 17.5005 26.5578 18.5005 26.5578 18.5005C26.5578 18.5005 33.3371 -2.92459e-05 43.065 0Z" fill="url(#paint0_linear_1132_46)"/>
<path d="M28.5362 7.49951C45.0362 7.49956 48.0336 20.4995 48.0336 20.4995C48.0336 20.4995 65.4858 20.4996 69.0288 29C72.5718 37.5004 73.0362 42.4986 60.5362 46.9991C48.0362 51.4995 19.9389 48.9995 19.9389 48.9995C19.9389 48.9995 1.02849 48.9995 0.0289821 35C-0.684978 25 12.029 26 12.029 26C12.029 26 18.8083 7.49948 28.5362 7.49951Z" fill="url(#paint1_linear_1132_46)"/>
<path d="M16.7752 50C16.7752 50 21 58.8889 21 61.5556C21 63.8711 19.2354 66 16.7752 66C14.1364 66 11.8993 64.0051 12.0035 61.5556C12.1277 58.6349 16.7752 50 16.7752 50Z" fill="url(#paint2_linear_1132_46)"/>
<path d="M34.7752 38C34.7752 38 39 46.8889 39 49.5556C39 51.8711 37.2354 54 34.7752 54C32.1364 54 29.8993 52.0051 30.0035 49.5556C30.1277 46.6349 34.7752 38 34.7752 38Z" fill="url(#paint3_linear_1132_46)"/>
<path d="M51.7752 46C51.7752 46 56 53.7778 56 56.1111C56 58.1372 54.2354 60 51.7752 60C49.1364 60 46.8993 58.2544 47.0035 56.1111C47.1277 53.5556 51.7752 46 51.7752 46Z" fill="url(#paint4_linear_1132_46)"/>
<defs>
<linearGradient id="paint0_linear_1132_46" x1="72.5292" y1="-12" x2="81.0292" y2="13" gradientUnits="userSpaceOnUse">
<stop stop-color="#D5CECE"/>
<stop offset="1" stop-color="#9F9999"/>
</linearGradient>
<linearGradient id="paint1_linear_1132_46" x1="58.0004" y1="-4.50047" x2="66.5004" y2="20.4995" gradientUnits="userSpaceOnUse">
<stop stop-color="white"/>
<stop offset="1" stop-color="#C6C6C6"/>
</linearGradient>
<linearGradient id="paint2_linear_1132_46" x1="14.5" y1="62" x2="19.7349" y2="56.4015" gradientUnits="userSpaceOnUse">
<stop stop-color="#758FEA"/>
<stop offset="1" stop-color="#92A9FA"/>
</linearGradient>
<linearGradient id="paint3_linear_1132_46" x1="32.5" y1="50" x2="37.7349" y2="44.4015" gradientUnits="userSpaceOnUse">
<stop stop-color="#758FEA"/>
<stop offset="1" stop-color="#92A9FA"/>
</linearGradient>
<linearGradient id="paint4_linear_1132_46" x1="49.5" y1="56.5" x2="54" y2="51" gradientUnits="userSpaceOnUse">
<stop stop-color="#758FEA"/>
<stop offset="1" stop-color="#92A9FA"/>
</linearGradient>
</defs>
</svg>
