<svg width="86" height="75" viewBox="0 0 86 75" fill="none" xmlns="http://www.w3.org/2000/svg">
<path d="M43.065 0C59.565 4.96057e-05 62.5624 13 62.5624 13C62.5624 13 80.0146 13.0001 83.5576 21.5005C87.1006 30.0009 87.565 34.9991 75.065 39.4996C62.565 44 34.4677 41.5 34.4677 41.5C34.4677 41.5 15.5573 41.5 14.5578 27.5005C13.8438 17.5005 26.5578 18.5005 26.5578 18.5005C26.5578 18.5005 33.3371 -2.92459e-05 43.065 0Z" fill="url(#paint0_linear_1132_80)"/>
<path d="M28.5362 7.49951C45.0362 7.49956 48.0336 20.4995 48.0336 20.4995C48.0336 20.4995 65.4858 20.4996 69.0288 29C72.5718 37.5004 73.0362 42.4986 60.5362 46.9991C48.0362 51.4995 19.9389 48.9995 19.9389 48.9995C19.9389 48.9995 1.02849 48.9995 0.0289821 35C-0.684978 25 12.029 26 12.029 26C12.029 26 18.8083 7.49948 28.5362 7.49951Z" fill="url(#paint1_linear_1132_80)"/>
<path d="M29.0128 42H40.2179L37.859 51.9908H47L26.9487 75L31.6667 56.8349H24L29.0128 42Z" fill="url(#paint2_linear_1132_80)"/>
<defs>
<linearGradient id="paint0_linear_1132_80" x1="72.5292" y1="-12" x2="81.0292" y2="13" gradientUnits="userSpaceOnUse">
<stop stop-color="#D5CECE"/>
<stop offset="1" stop-color="#9F9999"/>
</linearGradient>
<linearGradient id="paint1_linear_1132_80" x1="58.0004" y1="-4.50047" x2="66.5004" y2="20.4995" gradientUnits="userSpaceOnUse">
<stop stop-color="white"/>
<stop offset="1" stop-color="#C6C6C6"/>
</linearGradient>
<linearGradient id="paint2_linear_1132_80" x1="35.5" y1="42" x2="35.5" y2="75" gradientUnits="userSpaceOnUse">
<stop stop-color="#F1FF53"/>
<stop offset="1" stop-color="#B8C438"/>
</linearGradient>
</defs>
</svg>
