<svg width="74" height="85" viewBox="0 0 74 85" fill="none" xmlns="http://www.w3.org/2000/svg">
<circle cx="44.0039" cy="29" r="29" fill="url(#paint0_linear_1132_85)"/>
<path d="M16.5064 27C33.0064 27 36.0038 40 36.0038 40C36.0038 40 51.9634 38.9991 55.5064 47.4996C59.0494 56 61.0064 61.9991 48.5064 66.4996C36.0064 71 20.0031 70.5 10.5038 66.4996C1.00444 62.4991 -0.0995548 56.3807 0.00645609 47.4996C0.122566 37.7724 6.7785 27 16.5064 27Z" fill="url(#paint1_linear_1132_85)"/>
<path d="M23.7051 60H31.9872L30.2436 67.5688H37L22.1795 85L25.6667 71.2385H20L23.7051 60Z" fill="url(#paint2_linear_1132_85)"/>
<defs>
<linearGradient id="paint0_linear_1132_85" x1="57.5039" y1="4.5" x2="32.0039" y2="47.5" gradientUnits="userSpaceOnUse">
<stop stop-color="#F1FF53"/>
<stop offset="1" stop-color="#B8C438"/>
</linearGradient>
<linearGradient id="paint1_linear_1132_85" x1="15" y1="32" x2="37" y2="68" gradientUnits="userSpaceOnUse">
<stop stop-color="#E2DFDF"/>
<stop offset="1" stop-color="#A7A7A7"/>
</linearGradient>
<linearGradient id="paint2_linear_1132_85" x1="21" y1="77.5" x2="28.5" y2="85" gradientUnits="userSpaceOnUse">
<stop stop-color="#E4F150"/>
<stop offset="1" stop-color="#B8C438"/>
</linearGradient>
</defs>
</svg>
