<svg width="82" height="72" viewBox="0 0 82 72" fill="none" xmlns="http://www.w3.org/2000/svg">
<path d="M56.877 0.0272617C70.6135 8.2631 75.0726 26.0752 66.8368 39.8117C58.601 53.5482 40.7889 58.0074 27.0524 49.7715C26.3663 49.9432 44.4492 45.0634 52.685 31.3269C60.9208 17.5904 56.019 -0.487161 56.877 0.0272617Z" fill="url(#paint0_linear_1132_262)"/>
<path d="M16.5064 29C33.0064 29 36.0038 42 36.0038 42C36.0038 42 51.9634 40.9991 55.5064 49.4996C59.0494 58 61.0064 63.9991 48.5064 68.4996C36.0064 73 20.0031 72.5 10.5038 68.4996C1.00444 64.4991 -0.0995548 58.3807 0.00645609 49.4996C0.122566 39.7724 6.7785 29 16.5064 29Z" fill="url(#paint1_linear_1132_262)"/>
<defs>
<linearGradient id="paint0_linear_1132_262" x1="27.8935" y1="0.722473" x2="51.6603" y2="44.7041" gradientUnits="userSpaceOnUse">
<stop stop-color="#F1FF53"/>
<stop offset="1" stop-color="#B8C438"/>
</linearGradient>
<linearGradient id="paint1_linear_1132_262" x1="20.4717" y1="41.4995" x2="28.9717" y2="66.4995" gradientUnits="userSpaceOnUse">
<stop stop-color="white"/>
<stop offset="1" stop-color="#C6C6C6"/>
</linearGradient>
</defs>
</svg>
