<svg width="82" height="89" viewBox="0 0 82 89" fill="none" xmlns="http://www.w3.org/2000/svg">
<path d="M56.877 0.0272617C70.6135 8.2631 75.0726 26.0752 66.8368 39.8117C58.601 53.5482 40.7889 58.0074 27.0524 49.7715C26.3663 49.9432 44.4492 45.0634 52.685 31.3269C60.9208 17.5904 56.019 -0.487161 56.877 0.0272617Z" fill="url(#paint0_linear_1132_278)"/>
<path d="M16.5064 29C33.0064 29 36.0038 42 36.0038 42C36.0038 42 51.9634 40.9991 55.5064 49.4996C59.0494 58 61.0064 63.9991 48.5064 68.4996C36.0064 73 20.0031 72.5 10.5038 68.4996C1.00444 64.4991 -0.0995548 58.3807 0.00645609 49.4996C0.122566 39.7724 6.7785 29 16.5064 29Z" fill="url(#paint1_linear_1132_278)"/>
<path d="M25.7752 65C25.7752 65 30 73.8889 30 76.5556C30 78.8711 28.2354 81 25.7752 81C23.1364 81 20.8993 79.0051 21.0035 76.5556C21.1277 73.6349 25.7752 65 25.7752 65Z" fill="url(#paint2_linear_1132_278)"/>
<path d="M11.7752 73C11.7752 73 16 81.8889 16 84.5556C16 86.8711 14.2354 89 11.7752 89C9.13641 89 6.89933 87.0051 7.0035 84.5556C7.1277 81.6349 11.7752 73 11.7752 73Z" fill="url(#paint3_linear_1132_278)"/>
<path d="M42.7752 73C42.7752 73 47 80.7778 47 83.1111C47 85.1372 45.2354 87 42.7752 87C40.1364 87 37.8993 85.2544 38.0035 83.1111C38.1277 80.5556 42.7752 73 42.7752 73Z" fill="url(#paint4_linear_1132_278)"/>
<defs>
<linearGradient id="paint0_linear_1132_278" x1="27.8935" y1="0.722473" x2="51.6603" y2="44.7041" gradientUnits="userSpaceOnUse">
<stop stop-color="#F1FF53"/>
<stop offset="1" stop-color="#B8C438"/>
</linearGradient>
<linearGradient id="paint1_linear_1132_278" x1="20.4717" y1="41.4995" x2="28.9717" y2="66.4995" gradientUnits="userSpaceOnUse">
<stop stop-color="white"/>
<stop offset="1" stop-color="#C6C6C6"/>
</linearGradient>
<linearGradient id="paint2_linear_1132_278" x1="23.5" y1="77" x2="28.7349" y2="71.4015" gradientUnits="userSpaceOnUse">
<stop stop-color="#758FEA"/>
<stop offset="1" stop-color="#92A9FA"/>
</linearGradient>
<linearGradient id="paint3_linear_1132_278" x1="9.5" y1="85" x2="14.7349" y2="79.4015" gradientUnits="userSpaceOnUse">
<stop stop-color="#758FEA"/>
<stop offset="1" stop-color="#92A9FA"/>
</linearGradient>
<linearGradient id="paint4_linear_1132_278" x1="40.5" y1="83.5" x2="45" y2="78" gradientUnits="userSpaceOnUse">
<stop stop-color="#758FEA"/>
<stop offset="1" stop-color="#92A9FA"/>
</linearGradient>
</defs>
</svg>
