<svg width="82" height="97" viewBox="0 0 82 97" fill="none" xmlns="http://www.w3.org/2000/svg">
<path d="M56.877 0.0272617C70.6135 8.2631 75.0726 26.0752 66.8368 39.8117C58.601 53.5482 40.7889 58.0074 27.0524 49.7715C26.3663 49.9432 44.4492 45.0634 52.685 31.3269C60.9208 17.5904 56.019 -0.487161 56.877 0.0272617Z" fill="url(#paint0_linear_1132_350)"/>
<path d="M16.5064 29C33.0064 29 36.0038 42 36.0038 42C36.0038 42 51.9634 40.9991 55.5064 49.4996C59.0494 58 61.0064 63.9991 48.5064 68.4996C36.0064 73 20.0031 72.5 10.5038 68.4996C1.00444 64.4991 -0.0995548 58.3807 0.00645609 49.4996C0.122566 39.7724 6.7785 29 16.5064 29Z" fill="url(#paint1_linear_1132_350)"/>
<line x1="27.1726" y1="64" x2="27.1726" y2="92.3451" stroke="white" stroke-width="2" stroke-linecap="round"/>
<line x1="14.7062" y1="70.2434" x2="39.2514" y2="84.9705" stroke="white" stroke-width="2" stroke-linecap="round"/>
<line x1="13.6998" y1="84.9764" x2="38.2282" y2="70.8044" stroke="white" stroke-width="2" stroke-linecap="round"/>
<path d="M22.0876 65.6135L26.8003 69.6727L31.4245 65.6136" stroke="white" stroke-width="2" stroke-linecap="round"/>
<path d="M31.4701 91.6504L26.8151 87.5251L22.1341 91.5186" stroke="white" stroke-width="2" stroke-linecap="round"/>
<path d="M35.3842 67.6685L34.0492 73.7434L39.8172 75.886" stroke="white" stroke-width="2" stroke-linecap="round"/>
<path d="M17.6629 88.707L18.8826 82.6079L13.075 80.5749" stroke="white" stroke-width="2" stroke-linecap="round"/>
<path d="M40.387 80.5605L33.8715 81.879L34.3077 88.0167" stroke="white" stroke-width="2" stroke-linecap="round"/>
<path d="M13.8531 76.1857L20.0405 73.7554L18.5448 67.7868" stroke="white" stroke-width="2" stroke-linecap="round"/>
<defs>
<linearGradient id="paint0_linear_1132_350" x1="27.8935" y1="0.722473" x2="51.6603" y2="44.7041" gradientUnits="userSpaceOnUse">
<stop stop-color="#F1FF53"/>
<stop offset="1" stop-color="#B8C438"/>
</linearGradient>
<linearGradient id="paint1_linear_1132_350" x1="20.4717" y1="41.4995" x2="28.9717" y2="66.4995" gradientUnits="userSpaceOnUse">
<stop stop-color="white"/>
<stop offset="1" stop-color="#C6C6C6"/>
</linearGradient>
</defs>
</svg>
