<svg width="80" height="74" viewBox="0 0 80 74" fill="none" xmlns="http://www.w3.org/2000/svg">
<circle cx="50.0039" cy="29" r="29" fill="url(#paint0_linear_1132_20)"/>
<path d="M22.5064 27C39.0064 27 42.0038 40 42.0038 40C42.0038 40 57.9634 38.9991 61.5064 47.4996C65.0494 56 67.0064 61.9991 54.5064 66.4996C42.0064 71 26.0031 70.5 16.5038 66.4996C7.00444 62.4991 5.90045 56.3807 6.00646 47.4996C6.12257 37.7724 12.7785 27 22.5064 27Z" fill="url(#paint1_linear_1132_20)"/>
<line x1="21.75" y1="54.25" x2="73.25" y2="54.25" stroke="#A09C9C" stroke-width="3.5" stroke-linecap="round"/>
<line x1="1.75" y1="63.25" x2="53.25" y2="63.25" stroke="#A09C9C" stroke-width="3.5" stroke-linecap="round"/>
<line x1="17.75" y1="72.25" x2="69.25" y2="72.25" stroke="#A09C9C" stroke-width="3.5" stroke-linecap="round"/>
<defs>
<linearGradient id="paint0_linear_1132_20" x1="63.5039" y1="4.5" x2="38.0039" y2="47.5" gradientUnits="userSpaceOnUse">
<stop stop-color="#F1FF53"/>
<stop offset="1" stop-color="#B8C438"/>
</linearGradient>
<linearGradient id="paint1_linear_1132_20" x1="26.4717" y1="39.4995" x2="34.9717" y2="64.4995" gradientUnits="userSpaceOnUse">
<stop stop-color="white"/>
<stop offset="1" stop-color="#C6C6C6"/>
</linearGradient>
</defs>
</svg>
