<svg width="1049" height="1063" viewBox="0 0 1049 1063" fill="none" xmlns="http://www.w3.org/2000/svg">
<path d="M257.431 1006.84H242.675L255.17 978.52H264.69L257.431 1006.84ZM278.851 1006.84H264.095L276.59 978.52H286.11L278.851 1006.84ZM364.873 978.52V1061.22H351.307V1025.05H312.394V1061.22H298.828V978.52H312.394V1013.98H351.307V978.52H364.873ZM462.105 994.585C467.262 994.585 471.863 995.656 475.909 997.798C480.034 999.94 483.247 1003.11 485.548 1007.32C487.928 1011.52 489.118 1016.6 489.118 1022.55V1061.22H475.671V1024.57C475.671 1018.7 474.203 1014.22 471.268 1011.13C468.333 1007.95 464.326 1006.37 459.249 1006.37C454.172 1006.37 450.126 1007.95 447.111 1011.13C444.176 1014.22 442.708 1018.7 442.708 1024.57V1061.22H429.261V1024.57C429.261 1018.7 427.793 1014.22 424.858 1011.13C421.923 1007.95 417.916 1006.37 412.839 1006.37C407.762 1006.37 403.716 1007.95 400.701 1011.13C397.766 1014.22 396.298 1018.7 396.298 1024.57V1061.22H382.732V995.656H396.298V1003.15C398.519 1000.46 401.336 998.353 404.747 996.846C408.158 995.338 411.808 994.585 415.695 994.585C420.931 994.585 425.612 995.695 429.737 997.917C433.862 1000.14 437.036 1003.35 439.257 1007.56C441.24 1003.59 444.334 1000.46 448.539 998.155C452.744 995.775 457.266 994.585 462.105 994.585ZM585.754 994.585C590.91 994.585 595.512 995.656 599.558 997.798C603.683 999.94 606.896 1003.11 609.197 1007.32C611.577 1011.52 612.767 1016.6 612.767 1022.55V1061.22H599.32V1024.57C599.32 1018.7 597.852 1014.22 594.917 1011.13C591.981 1007.95 587.975 1006.37 582.898 1006.37C577.82 1006.37 573.774 1007.95 570.76 1011.13C567.824 1014.22 566.357 1018.7 566.357 1024.57V1061.22H552.91V1024.57C552.91 1018.7 551.442 1014.22 548.507 1011.13C545.571 1007.95 541.565 1006.37 536.488 1006.37C531.41 1006.37 527.364 1007.95 524.35 1011.13C521.414 1014.22 519.947 1018.7 519.947 1024.57V1061.22H506.381V995.656H519.947V1003.15C522.168 1000.46 524.984 998.353 528.396 996.846C531.807 995.338 535.456 994.585 539.344 994.585C544.58 994.585 549.26 995.695 553.386 997.917C557.511 1000.14 560.684 1003.35 562.906 1007.56C564.889 1003.59 567.983 1000.46 572.188 998.155C576.392 995.775 580.914 994.585 585.754 994.585ZM635.503 1062.06C633.044 1062.06 630.981 1061.22 629.315 1059.56C627.649 1057.89 626.816 1055.83 626.816 1053.37C626.816 1050.91 627.649 1048.85 629.315 1047.18C630.981 1045.52 633.044 1044.68 635.503 1044.68C637.883 1044.68 639.906 1045.52 641.572 1047.18C643.238 1048.85 644.071 1050.91 644.071 1053.37C644.071 1055.83 643.238 1057.89 641.572 1059.56C639.906 1061.22 637.883 1062.06 635.503 1062.06ZM664.207 1062.06C661.748 1062.06 659.685 1061.22 658.019 1059.56C656.353 1057.89 655.52 1055.83 655.52 1053.37C655.52 1050.91 656.353 1048.85 658.019 1047.18C659.685 1045.52 661.748 1044.68 664.207 1044.68C666.587 1044.68 668.61 1045.52 670.276 1047.18C671.942 1048.85 672.775 1050.91 672.775 1053.37C672.775 1055.83 671.942 1057.89 670.276 1059.56C668.61 1061.22 666.587 1062.06 664.207 1062.06ZM692.911 1062.06C690.452 1062.06 688.389 1061.22 686.723 1059.56C685.057 1057.89 684.224 1055.83 684.224 1053.37C684.224 1050.91 685.057 1048.85 686.723 1047.18C688.389 1045.52 690.452 1044.68 692.911 1044.68C695.291 1044.68 697.314 1045.52 698.98 1047.18C700.646 1048.85 701.479 1050.91 701.479 1053.37C701.479 1055.83 700.646 1057.89 698.98 1059.56C697.314 1061.22 695.291 1062.06 692.911 1062.06ZM749.195 978.52H763.951L751.456 1006.84H741.936L749.195 978.52ZM770.615 978.52H785.371L772.876 1006.84H763.356L770.615 978.52Z" fill="#878787"/>
<path d="M264.908 778.191C264.908 778.191 239.305 693.835 230.506 627.221C218.971 539.901 230.506 472.569 237.127 448.059C255.321 380.708 276.61 320.409 316.578 262.499C380.291 170.186 420.457 96.4282 535.068 89.7369C660.369 82.4215 721.217 139.781 786.663 243.304C823.334 301.309 849.466 324.427 866.115 390.471C883.522 459.525 876.272 544.039 866.115 588.829C852.442 649.114 842.774 678.787 806.526 729.598C777.174 770.744 733.696 806.382 733.696 806.382" stroke="#878787" stroke-width="10"/>
<path d="M442.375 134.532C442.375 134.532 511.922 165.571 535.067 192.119C558.967 219.534 561.551 275.302 561.551 275.302" stroke="#878787" stroke-width="10"/>
<path d="M723.205 263.01C723.205 263.01 754.629 243.506 777.234 238.741C801.586 233.608 841.352 240.174 841.352 240.174" stroke="#878787" stroke-width="10"/>
<path d="M519.041 295.852C518.592 250.507 438.995 208.261 438.995 208.261C438.995 208.261 420.062 206.735 408.128 208.523C352.95 216.786 320.225 314.917 320.225 314.917C320.225 314.917 311.258 378.173 338.033 401.676C375.451 434.522 428.174 408.316 468.617 377.394C499.121 354.071 519.403 332.328 519.041 295.852Z" stroke="#878787" stroke-width="10"/>
<path d="M323.196 384.08C323.196 384.08 363.42 390.479 389.406 390.479C415.391 390.479 455.615 384.08 455.615 384.08" stroke="#878787" stroke-width="10"/>
<path d="M362.924 236.906C362.924 236.906 407.649 238.4 435.754 243.305C460.814 247.679 515.205 281.697 515.205 281.697" stroke="#878787" stroke-width="10"/>
<path d="M394.585 236.909C394.585 236.909 421.983 283.311 392.806 304.625C370.979 320.568 321.729 315.831 321.729 315.831" stroke="#878787" stroke-width="10"/>
<path d="M783.646 323.574C780.18 320.281 674.105 304.107 641.279 345.953C623.488 368.633 621.137 409.67 621.137 409.67C621.137 409.67 669.92 505.307 720.938 493.322C749.155 486.694 763.613 471.696 780.18 448.197C809.241 406.977 818.59 356.778 783.646 323.574Z" stroke="#878787" stroke-width="10"/>
<path d="M464.502 580.77C464.502 580.77 483.394 581.847 495.438 583.15C510.918 584.826 534.861 589.015 534.861 589.015" stroke="#878787" stroke-width="10"/>
<path d="M656.507 333.277C656.507 333.277 725.129 325.514 760.178 345.689C779.665 356.905 802.168 384.466 802.168 384.466" stroke="#878787" stroke-width="10"/>
<path d="M627.758 422.467C627.758 422.467 672.792 453.385 707.209 467.257C719.8 472.332 760.177 473.656 760.177 473.656" stroke="#878787" stroke-width="10"/>
<path d="M627.591 392.285C627.591 392.285 675.286 408.605 693.433 392.789C711.797 376.782 692.905 333.959 692.905 333.959" stroke="#878787" stroke-width="10"/>
<path d="M296.715 793.592C296.715 793.592 243.748 767.998 256.99 748.803C268.464 732.17 316.578 755.201 316.578 755.201C316.578 755.201 276.332 739.203 276.849 723.21C277.494 703.229 336.441 723.21 336.441 723.21C336.441 723.21 237.123 650.99 256.99 622.193C276.856 593.395 433.282 733.496 486.438 733.496C583.889 733.496 654.244 633.629 660.864 678.419C667.484 723.21 605.943 733.632 579.46 772.024C552.976 810.416 568.169 831.987 568.169 831.987" stroke="#878787" stroke-width="10"/>
</svg>
